<svg version="1.1" id="Layer_1" xmlns="http://www.w3.org/2000/svg" xmlns:xlink="http://www.w3.org/1999/xlink" x="0px" y="0px" width="180px" height="180px" viewBox="0 0 180 180" fill="#68869f" style="enable-background:new 0 0 180 180;" xml:space="preserve"><path d="M155.9 56.3h-24.3v-5.4c0-.7-.3-1.3-.7-1.8-.5-.5-1.1-.7-1.8-.7l-107.4.2c-1.4 0-2.5 1.1-2.5 2.5V85c.1 21.3 11.8 40.7 30.6 50.6l2.9 2c.4.3.9.4 1.4.4l42.8-.1c.5 0 1-.2 1.4-.4l2.9-2c9.1-4.9 16.5-11.9 21.8-20.3 13.1-.3 22.6-3.3 28.3-9 4.2-4.2 6.4-9.8 6.4-16.7V58.1c-.1-1-.9-1.8-1.8-1.8zM131.6 73l8.8-.7V89c0 3.2-1.2 6.8-10 7.5.8-3.8 1.2-7.8 1.2-11.8V73zm-32.9 58.2c-.1 0-.2.1-.2.1l-2.4 1.6-41.2.1-2.4-1.6c-.1-.1-.2-.1-.2-.1-17.2-9.1-28-26.8-28.1-46.3V53.6l102.4-.2v31.4c0 19.5-10.7 37.2-27.9 46.4zm55.4-41.7c0 5.9-1.8 10.7-5.4 14.2-4.8 4.7-12.8 7.4-23.8 7.9 1.9-3.6 3.4-7.5 4.5-11.4 9.5-.5 14.4-4.2 14.4-11.1V70.5c0-.5-.2-1-.6-1.3s-.8-.5-1.3-.5l-10.4.8v-9.7H154v29.7z" fill="#67859e"/></svg>