<svg version="1.1" id="Layer_1" xmlns="http://www.w3.org/2000/svg" xmlns:xlink="http://www.w3.org/1999/xlink" x="0px" y="0px" width="180px" height="180px" viewBox="0 0 180 180" fill="#68869f" style="enable-background:new 0 0 180 180;" xml:space="preserve"><path d="M141.4 75c-3.4-10.4-16.3-30-27.8-39.7-18.6-15.6-24.8-13.5-39-3.2-14 10.1-26 30.6-30.7 41.9-4.5 10.8-6.4 16.4-.6 24.5 5.6 7.8 14.7 17.3 28.7 29.6-.9 2.2-.4 4.8 1.4 6.5l2.5 2.4v7.2h-.1c-1.4 0-2.5 1.1-2.5 2.5v5.4c0 1.4 1.1 2.5 2.5 2.5h29.6c1.4 0 2.5-1.1 2.5-2.5v-5.4c0-1.3-1-2.4-2.3-2.5v-7.1l2.5-2.4c1.1-1.1 1.8-2.6 1.8-4.2 0-.4 0-.8-.1-1.2L138 99.4c5.7-6 6.8-13.8 3.4-24.4zm-35 49.9l-.4-.3c-.5-.4-1.1-.6-1.7-.6h-1.2l7.6-20.5c2.6-7.5 2.7-9.7 1.1-19.3-1.1-6.5-4.4-21.8-8-35.2.2.2.4.3.6.5.5.4.9.8 1.4 1.2 7.2 6.4 16.9 21.8 16 36.1-.6 14-6 27.5-15.4 38.1zm2-40.2c1.6 9.4 1.4 11-.9 17.6-1.8 5.3-6.1 16.4-8.1 21.7h-3.3c4.5-30.4 5.7-43 3.2-69.2l-1.2-10.5c.3.2.6.4 1 .6 4.2 14.3 8.1 32.7 9.3 39.8zm-32.1 39.5C64.2 107.5 60 95.5 61.5 81.5c1.3-11.6 7.4-25.8 15.5-33.3-3.6 10.2-5.7 20.8-6.2 31.6-.6 5.6-.1 11.2 1.5 16.7.8 2.5 3.4 9.5 6.5 17.6l3.8 10-6.3.1zm10.1-.1l-4.3-11.3-6.4-17.3c-1.4-5-1.9-10.2-1.3-15.4V80c.5-11.4 2.8-22.6 6.9-33.2l.6-1.4c.1-.3.2-.6.4-.9.4-.2.9-.4 1.3-.6.8-.3 1.6-.6 2.4-.8-2.2 15.5-3.1 31.2-2.5 46.8.4 11.5 2.1 23 4.8 34.2h-1.9zm4.3-88.9c.5-2.7 1-4.3 1.3-5.3.5 1.4 1.1 4 1.9 9-1.2-.2-2.4-.3-3.8-.2l.6-3.5zm-3.4-.6c-.3 1.6-.5 3.2-.8 4.8-.8.2-1.5.4-2.4.7 1.2-2.7 2.4-5.4 3.6-7.6-.1.6-.3 1.3-.4 2.1zm4.5 89.5c-2.8-11.2-4.5-22.7-4.9-34.3-.6-15.8.3-31.8 2.6-47.4 1.8-.2 3.4-.1 4.9.3l1.4 12.5c2.5 25.9 1.3 38.4-3.2 68.8l-.8.1zm5.8-84v-.2.2zM46.1 96.5c-4.7-6.6-3.4-10.6 1-21.2 4.4-10.5 16.2-30.8 29.5-40.4 3.5-2.5 6.3-4.5 9-5.8-1.9 3-3.8 7.3-6.2 12.9C68.1 48.7 59.6 66.8 58 81.2 56.5 95 60.1 107 70.7 122.5c-11.8-10.7-19.7-19-24.6-26zm58.4 34.7l-3.3 3.1c-.5.5-.8 1.1-.8 1.8v10.6c0 1.3 1 2.4 2.3 2.5v.4H78.2v-.4h.1c1.4 0 2.5-1.1 2.5-2.5V136c0-.7-.3-1.3-.8-1.8l-3.3-3.1c-.4-.3-.4-.9-.1-1.2l.5-.6 26.4-.2 1 .9a1.08 1.08 0 0 1 .3.7c0 0 0 .2-.3.5zm11.7-13.7c5.5-9.2 8.7-19.7 9.1-30.5 1-15.4-9.4-32-17.2-38.9-.5-.4-.9-.8-1.4-1.2-1.6-1.4-3.1-2.7-4.6-3.9-1.4-4.8-2.9-9.1-4.3-12.3a22.56 22.56 0 0 0-1.1-2.2c3.9 1.4 8.4 4.4 14.5 9.6 11.1 9.3 23.5 28.1 26.7 38.1 3 9.4 2.2 15.9-2.7 21.1l-19 20.2z" fill="#68869f"/></svg>