<svg version="1.1" id="Layer_1" xmlns="http://www.w3.org/2000/svg" xmlns:xlink="http://www.w3.org/1999/xlink" x="0px" y="0px" width="180px" height="180px" viewBox="0 0 180 180" fill="#68869f" style="enable-background:new 0 0 180 180;" xml:space="preserve"><path d="M149.4 113.6c12.4-14.2 12.3-35.1 0-49.3-1.2-18.9-16.1-33.8-35-35-14.2-12.6-35.3-12.6-49.6 0a37.45 37.45 0 0 0-34.9 34.9c-12.7 14.3-12.7 35.4 0 49.7 1.2 18.9 16.1 33.8 35 35 7.1 6.2 15.9 9.3 24.7 9.3s17.6-3.1 24.7-9.3c19-1.3 33.9-16.2 35.1-35.3zm-29.9 23.1c-1.7 3.2-3.9 6-6.6 8.5l-.1.1h-.1-2.5-.2c-.8 0-1.6-.1-2.4-.2h-.2c-.8-.1-1.5-.2-2.3-.4-.2 0-.3-.1-.5-.1-.7-.2-1.4-.3-2.1-.5-.2-.1-.4-.1-.6-.2-.7-.2-1.4-.4-2-.7-.2-.1-.4-.2-.6-.2-.7-.3-1.3-.6-2-.9-.2-.1-.3-.2-.4-.2l-1.8-.9c-.2-.1-.3-.2-.5-.3l-1.8-1.2c-.1-.1-.2-.1-.3-.2.5-.4.9-.8 1.3-1.3.5-.5 1-1 1.5-1.6l.2-.2c.4-.5.8-.9 1.2-1.4.1-.2.2-.3.3-.5l.9-1.2c.1-.2.3-.4.4-.6.3-.4.5-.8.8-1.2.1-.2.3-.5.4-.7.2-.4.4-.7.7-1.1.1-.2.3-.5.4-.7.2-.4.4-.7.6-1.1.1-.3.2-.5.4-.8.2-.4.3-.8.5-1.1.1-.3.2-.6.3-.8s.2-.4.3-.7l3-1.2c.2.1.5.2.8.3.2.1.4.2.7.3.4.2.9.3 1.3.5.2.1.4.2.6.2.5.2.9.3 1.4.4.2.1.4.1.6.2.5.1 1 .3 1.5.4.2 0 .3.1.5.1l1.6.3c.1 0 .3.1.4.1l1.8.3h.2c1.4.2 2.8.2 4.2.2h2c-.9 3.6-2.1 7.1-3.8 10.3zm-35 3.9s-.1 0-.1.1c-1.5.9-3.1 1.7-4.8 2.3h-.1l-2.5.9c-3.4 1-6.9 1.5-10.5 1.4h-.2l-.2-.2c-.6-.6-1.2-1.1-1.7-1.7-.1-.1-.1-.2-.2-.2-.6-.6-1.1-1.3-1.6-1.9v-.1c-.5-.7-1-1.3-1.4-2-.1-.1-.1-.2-.2-.3l-1.2-2.1c-.1-.1-.1-.2-.2-.4-.4-.7-.7-1.4-1-2.1 0-.1-.1-.2-.1-.3l-.9-2.3v-.1c-.3-.8-.5-1.6-.7-2.4 0-.1 0-.1-.1-.2-.2-.8-.4-1.6-.5-2.4v-.2h1.9.1c.7 0 1.3 0 2-.1.3 0 .5 0 .8-.1.4 0 .9-.1 1.3-.1.3 0 .6-.1.9-.1.4-.1.8-.1 1.1-.2s.6-.1 1-.2.7-.1 1.1-.2c.3-.1.7-.2 1-.2.3-.1.7-.2 1-.3s.7-.2 1-.3.6-.2 1-.3c.3-.1.7-.2 1-.4.3-.1.6-.2.9-.4.3-.1.6-.3 1-.4.2-.1.4-.2.6-.2 1.1.5 2.1.9 3.2 1.3.1.2.2.5.3.7s.2.5.3.7c.2.4.3.8.5 1.2.1.2.2.5.3.7l.6 1.2c.1.2.2.5.4.7.2.4.4.8.7 1.1.1.2.3.4.4.7.2.4.5.7.7 1.1.1.2.3.4.4.6l.8 1.1c.1.2.3.4.4.6.3.4.6.8.9 1.1.1.2.3.3.4.5.4.5.9 1 1.3 1.4l.1.1.1.1L87 139l-.1.1a13.24 13.24 0 0 1-2.4 1.5zm-35-18.7c-.1 0-.1 0-.2-.1-.8-.2-1.6-.4-2.4-.7h-.1l-2.3-.9c-.1 0-.2-.1-.3-.1A22.56 22.56 0 0 1 42 119c-.1-.1-.2-.1-.3-.2l-2.1-1.2c-.1 0-.1-.1-.2-.1-1.4-.9-2.8-2-4.1-3.1l-.1-.1-1.8-1.8-.1-.1v-.1-2.6-.1c.1-1.8.3-3.5.7-5.2v-.2l.6-2.4c0-.1.1-.2.1-.3.2-.8.5-1.6.8-2.3 0-.1.1-.2.1-.2.3-.8.7-1.6 1-2.3.4-.8.8-1.5 1.2-2.3 0-.1.1-.1.1-.2.4-.7.9-1.4 1.3-2.1 0-.1.1-.1.1-.2.4.5.9.9 1.3 1.4 1.9 1.9 3.9 3.6 6.2 5 0 0 .1 0 .1.1.5.3 1 .7 1.6 1l.1.1c.5.3 1.1.6 1.6.9.1 0 .1.1.2.1.5.3 1.1.5 1.6.8.1 0 .1 0 .2.1.3.1.7.3 1 .4.5 1.4 1.2 2.8 1.9 4.2-.1.2-.1.3-.2.5-.1.3-.3.6-.4.9l-.3.9-.3.9a12.59 12.59 0 0 0-.3 1l-.3.9c-.1.3-.2.7-.2 1-.1.3-.1.6-.2.9s-.1.7-.2 1-.1.6-.2.9c-.1.4-.1.7-.1 1.1 0 .3-.1.6-.1.9 0 .4-.1.8-.1 1.2 0 .2 0 .5-.1.7 0 .6-.1 1.3-.1 1.9v1.9h-.2c-.7-.3-1.5-.5-2.3-.7zM38 83.9c-.9-1.6-1.7-3.2-2.4-4.9l-.9-2.5v-.1c-1-3.5-1.5-7.1-1.4-10.8 5-5.3 11.5-8.8 18.7-10h.1c0 .6-.1 1.3-.1 1.9 0 3.5.5 7 1.4 10.3.2.5.3 1.1.5 1.6v.1l.6 1.5v.1C53.7 73 53 75 52.4 77c-.1 0-.1 0-.2.1-.5.2-.9.4-1.3.6-.1 0-.2.1-.3.1-.4.2-.9.5-1.3.7-.1 0-.1.1-.2.1a9.13 9.13 0 0 0-1.3.8c-.1 0-.1.1-.2.1-.5.3-.9.6-1.3.9h-.1a37.91 37.91 0 0 0-5.4 4.5l-1.3 1.3-.1-.1c-.5-.7-1-1.4-1.4-2.2zM56.7 49c0-.1 0-.2.1-.2.2-.8.4-1.6.7-2.4v-.1l.9-2.3c0-.1.1-.2.1-.3a22.56 22.56 0 0 1 1.1-2.2c.1-.1.1-.2.2-.3l1.2-2.1c0-.1.1-.2.1-.2.9-1.4 2-2.8 3.1-4.1l.1-.1c.6-.6 1.1-1.2 1.8-1.8l.1-.1h.4 2.1.6c.7 0 1.3.1 2 .2a.9.9 0 0 1 .5.1c.7.1 1.4.2 2.1.4.2 0 .4.1.6.1.7.2 1.4.3 2.2.6.2.1.4.1.5.2.7.2 1.4.5 2.1.7.1.1.3.1.4.2.7.3 1.5.6 2.2 1 .1 0 .1.1.2.1.7.4 1.4.7 2.1 1.1.1 0 .1.1.2.1.7.4 1.4.9 2.1 1.3.1 0 .1.1.2.1-.5.4-.9.9-1.4 1.3-2.1 2.1-3.9 4.4-5.4 6.8-.3.5-.6 1-.8 1.4 0 0 0 .1-.1.1-.3.5-.5.9-.7 1.4 0 .1-.1.1-.1.2-.1.2-.2.5-.4.7-2.4.7-4.7 1.7-6.9 2.9-.2-.1-.3-.1-.5-.2s-.5-.2-.7-.3l-.9-.3c-.2-.1-.5-.2-.7-.2-.3-.1-.6-.2-.9-.2-.2-.1-.5-.1-.7-.2-.3-.1-.6-.1-.9-.2-.2-.1-.5-.1-.7-.2-.3-.1-.6-.1-1-.2-.2 0-.5-.1-.7-.1-.3 0-.7-.1-1-.1-.2 0-.5-.1-.7-.1-.4 0-.8-.1-1.1-.1h-.6-1.7-1.9v-.2c.1-.6.3-1.4.5-2.2zm35.9-10.2a22.63 22.63 0 0 1 2-1.3c.1-.1.2-.1.3-.2.6-.4 1.2-.7 1.9-1 .1-.1.3-.1.4-.2.6-.3 1.3-.6 1.9-.8.2-.1.5-.2.7-.3.6-.2 1.2-.4 1.9-.6l.9-.3c.6-.2 1.2-.3 1.9-.5.3-.1.6-.1.9-.2l1.5-.3c.4-.1.9-.1 1.3-.2.5-.1.9-.1 1.4-.1.4 0 .8-.1 1.2-.1h1.6.6l.4.4 1.4 1.4.6.6c.4.4.7.8 1 1.2.2.3.4.5.6.8.4.5.7 1 1 1.4.1.2.3.4.4.7.4.6.7 1.2 1 1.7.1.2.2.4.4.7.3.6.6 1.2.9 1.9l.3.6c.3.7.5 1.3.8 2 .1.2.1.3.2.5.2.6.4 1.3.6 2 0 .2.1.3.1.5.2.7.3 1.5.5 2.2 0 .1 0 .2.1.3h-1.9c-1.2 0-2.4.1-3.6.2h-.2c-.5.1-1 .1-1.6.2h-.3l-1.5.3h-.2l-1.6.3h-.1c-.6.1-1.1.3-1.7.4-.9.3-1.7.5-2.6.9-2.1-1.2-4.3-2.1-6.6-2.8-.1-.2-.2-.5-.3-.7 0-.1-.1-.2-.1-.3-.2-.5-.5-.9-.7-1.4 0-.1-.1-.1-.1-.2-.3-.5-.5-1-.8-1.4-1.5-2.5-3.3-4.8-5.4-6.9-.4-.4-.9-.9-1.4-1.3-.1 0-.1 0 0-.1zm37 17.3c.1 0 .2 0 .2.1.8.2 1.6.4 2.4.7h.1l2.3.9c.1 0 .2.1.3.1.7.3 1.4.7 2.1 1 .1.1.2.1.4.2.7.4 1.4.8 2 1.2.1.1.2.1.3.2.7.5 1.4.9 2 1.4 0 0 .1 0 .1.1.6.5 1.3 1 1.9 1.6.1.1.2.1.2.2a13.65 13.65 0 0 1 1.7 1.7l.2.2v.3 2.2.5c0 .7-.1 1.4-.2 2.1 0 .2 0 .3-.1.5-.1.7-.2 1.4-.4 2.1 0 .2-.1.4-.1.6-.2.7-.3 1.4-.5 2.1-.1.2-.1.4-.2.6-.2.7-.4 1.4-.7 2-.1.2-.2.4-.2.6-.3.7-.6 1.3-.9 2-.1.2-.2.3-.2.5-.3.6-.6 1.2-.9 1.7-.1.2-.2.3-.3.5l-1.2 1.8c-.1.1-.1.2-.2.3-.4-.5-.8-.9-1.3-1.3-.5-.5-.9-.9-1.4-1.3l-.1-.1c-.4-.4-.9-.8-1.4-1.2l-.3-.3c-.4-.3-.8-.6-1.1-.9-.1-.1-.3-.2-.5-.3-.4-.3-.7-.5-1.1-.7-.2-.1-.4-.2-.5-.3-.3-.2-.7-.4-1-.6l-.6-.3c-.3-.2-.7-.4-1-.6l-.6-.3c-.3-.2-.7-.3-1-.5-.2-.1-.4-.2-.7-.3l-.6-.3c-.6-1.9-1.3-3.8-2.1-5.6.1-.2.1-.4.2-.6s.2-.5.3-.7c.1-.3.2-.7.3-1 .1-.2.2-.5.2-.7.1-.3.2-.7.3-1 .1-.2.1-.5.2-.7.1-.4.2-.7.3-1.1 0-.2.1-.5.1-.7.1-.4.1-.8.2-1.2 0-.2.1-.4.1-.6.1-.4.1-.8.2-1.2 0-.2 0-.4.1-.6 0-.5.1-.9.1-1.4v-.4-1.8-1.8h.2c.8 0 1.6.2 2.4.4zm6.3 34.7c-.6.6-1.2 1.1-1.8 1.7-.2.1-.3.3-.5.4-.6.5-1.3 1-1.9 1.5h-.1a22.63 22.63 0 0 1-2 1.3c-.2.1-.4.2-.5.3-.7.4-1.4.8-2.2 1.2 1.3-5.3 1.5-10.7.6-16l2.1 1.2a.76.76 0 0 0 .4.2c1.3.8 2.6 1.8 3.9 2.8l.3.3c.6.5 1.2 1.1 1.8 1.6.5.5 1 1 1.5 1.6l.1.1s-.1.1-.1.2c-.6.5-1.1 1.1-1.6 1.6zM121.5 123h-.4-.5-1.2c-.3 0-.5 0-.8-.1-.3 0-.6 0-.9-.1-.3 0-.5-.1-.8-.1s-.7-.1-1-.1c-.2 0-.5-.1-.7-.1l-1.5-.3c-.3-.1-.5-.1-.7-.2-.3-.1-.6-.2-.9-.2-.3-.1-.5-.1-.8-.2l-.9-.3c-.2-.1-.5-.2-.7-.2h-.1c4.9-2.9 9-6.9 12.1-11.6 0 .1.1.1.1.2s.1.2.1.4c.1.4.3.9.4 1.3 0 .1.1.3.1.4.1.5.3 1 .4 1.4 0 .1 0 .1.1.2l.3 1.8v.1c.1.6.2 1.1.2 1.7v.3c.1.5.1 1 .1 1.5v.2 1.8.6 1.4.3c-.3 0-.7 0-1 .1-.4-.2-.7-.2-1-.2zm-20.9-1.8s-.1 0 0 0c-7.1 2.4-14.7 2.4-21.9.1-1.5-.5-3-1.1-4.4-1.7-6.7-3.2-12.1-8.3-15.6-14.8-.9-1.7-1.7-3.4-2.3-5.2-2.4-6.7-2.6-13.9-.8-20.8.6-2.4 1.5-4.7 2.6-6.8v-.1c3.1-6.1 7.9-11.1 13.9-14.5 2.4-1.4 4.9-2.5 7.6-3.2h.1c6.5-1.9 13.4-1.8 19.9.1h.2c2.5.8 4.9 1.8 7.2 3.1 6 3.5 10.8 8.6 13.9 14.8 1 2.1 1.9 4.2 2.5 6.4 1.9 7 1.6 14.3-.8 21.1-.6 1.7-1.3 3.3-2.2 4.9-3.6 6.5-9 11.7-15.7 14.9-1.5.7-2.8 1.2-4.2 1.7zm-2.5 4.5l-.3.6c-.2.3-.3.7-.5 1l-.3.6c-.2.4-.4.7-.6 1-.1.2-.2.3-.3.5-.3.5-.6.9-.9 1.4-.1.2-.2.3-.4.5-.2.3-.5.6-.7.9-.1.2-.3.4-.4.6-.2.3-.5.6-.7.8s-.3.4-.5.5c-.3.3-.6.7-1 1-.1.1-.1.2-.2.2-.5.5-1 1-1.6 1.5l-.1.1-.1-.1c-.5-.4-1-.9-1.5-1.4l-.1-.1c-.4-.4-.8-.8-1.2-1.3-.1-.1-.2-.3-.4-.4-.3-.3-.5-.6-.8-.9-.1-.2-.3-.3-.4-.5-.3-.3-.5-.7-.8-1-.1-.1-.2-.3-.3-.4-.3-.5-.6-.9-.9-1.4-.1-.2-.2-.3-.3-.5-.2-.3-.4-.7-.6-1l-.3-.6c-.2-.3-.3-.6-.5-1l-.3-.6c0-.1-.1-.1-.1-.2 5.6 1.3 11.4 1.2 17.1-.1v.3zM69.3 121c-.1 0-.2.1-.3.1-.5.2-.9.3-1.4.4-.2 0-.3.1-.5.1-.5.1-.9.2-1.4.4-.1 0-.2.1-.4.1-.6.1-1.2.2-1.7.4h-.2c-.5.1-1 .2-1.5.2-.2 0-.3 0-.5.1-.4 0-.9.1-1.3.1h-.5c-.6 0-1.2.1-1.7.1-.6 0-1.3 0-1.9-.1h-.4v-.2c0-.7-.1-1.4-.1-2.1v-1.7-.5c0-.4.1-.8.1-1.2a.9.9 0 0 1 .1-.5c.1-.5.1-.9.2-1.4v-.3l.3-1.7c0-.1.1-.2.1-.4.1-.4.2-.9.3-1.3 0-.2.1-.3.1-.5.1-.4.3-.9.4-1.3 0-.1.1-.2.1-.3s0-.1.1-.2c3.1 4.7 7.2 8.5 12.1 11.4.1.3 0 .3-.1.3zM49.5 95.7c-1.4-.9-2.8-1.9-4.1-3-.1-.1-.2-.1-.3-.2-.6-.6-1.3-1.1-1.9-1.7-.5-.5-1-1.1-1.5-1.6l-.1-.1c.1-.1.1-.2.2-.3l.5-.5c.3-.3.6-.6.8-.9l.4-.4c.4-.3.7-.7 1.1-1 .2-.2.5-.4.7-.6.4-.3.7-.6 1.1-.9.3-.2.7-.5 1-.7.4-.3.8-.6 1.2-.8.3-.2.5-.3.8-.5.4-.2.8-.5 1.2-.7.2-.1.4-.2.5-.3-.9 5.2-.7 10.5.6 15.6-.8-.4-1.5-.8-2.2-1.2.1-.2.1-.2 0-.2zm8.2-40.6h.3c.6 0 1.3 0 1.9.1.3 0 .6 0 .8.1.4 0 .9.1 1.3.1.2 0 .5 0 .7.1l1.9.3c.2 0 .4.1.6.1.5.1 1.1.3 1.6.4.1 0 .2.1.3.1-4 2.9-7.5 6.5-10.2 10.6-.1-.2-.1-.5-.2-.7-.1-.3-.2-.6-.2-.9-.1-.4-.2-.7-.2-1.1-.1-.3-.1-.7-.2-1l-.3-1.8c0-.3-.1-.6-.1-.9 0-.4-.1-.8-.1-1.2v-1-.9-1.6-.3-.4h.3c.6-.1 1.2-.1 1.8-.1zm30.2-12.4c.5-.5 1.1-1.1 1.7-1.6.6.5 1.1 1 1.7 1.6a34.39 34.39 0 0 1 5.5 7.2c-2.4-.5-4.9-.7-7.4-.7a41.36 41.36 0 0 0-7 .6c1.6-2.6 3.4-4.9 5.5-7.1zm23.9 13.6c3-.9 6.1-1.3 9.3-1.3.8 0 1.6 0 2.3.1v.2c0 .7.1 1.4.1 2.1s0 1.5-.1 2.2v.5c-.1.7-.1 1.3-.2 2v.2c-.1.7-.2 1.5-.4 2.2 0 .2-.1.3-.1.5-.1.6-.3 1.2-.5 1.9 0 .1 0 .2-.1.2-2.7-4.2-6.2-7.8-10.3-10.8zm15.2 66.2v-.4-1.5c0-1.1-.1-2.3-.2-3.4v-.6c0-.4-.1-.8-.2-1.2 0-.3-.1-.5-.1-.8-.1-.4-.1-.8-.2-1.1s-.1-.6-.2-.9c-.1-.4-.2-.7-.2-1.1-.1-.3-.1-.6-.2-.9s-.2-.7-.3-1l-.3-.9-.3-.9c-.1-.3-.2-.7-.4-1l-.3-.9c-.1-.2-.2-.4-.2-.6.6-1.2 1.2-2.5 1.7-3.8l.6-.3c.3-.1.6-.2.8-.3a4.67 4.67 0 0 0 1-.5c.3-.1.5-.3.8-.4.3-.2.7-.3 1-.5.3-.1.5-.3.8-.4.3-.2.6-.4 1-.6.2-.2.5-.3.7-.5.3-.2.6-.4 1-.7.2-.2.5-.3.7-.5.3-.2.7-.5 1-.7.2-.2.4-.3.6-.5.4-.3.7-.6 1-.9.2-.1.3-.3.5-.4.5-.4 1-.9 1.4-1.4.4-.4.9-.9 1.3-1.4 0 .1.1.1.1.2.5.7.9 1.4 1.3 2.1l.1.1c.9 1.5 1.6 3 2.3 4.6 0 .1.1.1.1.2.3.8.6 1.5.8 2.3 0 .1.1.2.1.3l.6 2.4v.2c.4 1.7.6 3.4.7 5.2v.1c0 .9.1 1.7 0 2.6v.1c-5 5.7-11.7 9.3-18.9 10.6zm22.3-14.5v-.2l-.3-2c0-.3-.1-.5-.1-.8-.1-.6-.2-1.2-.4-1.9 0-.2-.1-.4-.1-.6-.1-.6-.3-1.2-.5-1.8-.1-.2-.1-.5-.2-.7-.2-.7-.4-1.3-.7-2-.1-.1-.1-.3-.2-.4-.2-.6-.5-1.1-.7-1.7l-.3-.6c-.3-.6-.6-1.3-1-1.9a.76.76 0 0 1-.2-.4c-.3-.5-.6-1-.9-1.6l-.3-.6-1.2-1.8-.1-.1c.5-.7 1-1.4 1.4-2.1 0-.1.1-.1.1-.2.9-1.4 1.7-2.8 2.4-4.3 0-.1.1-.1.1-.2.7-1.5 1.3-3 1.7-4.6 0-.1.1-.2.1-.3.5-1.5.8-3.1 1.1-4.7v-.3l.3-2.4c7.8 11.7 7.8 26.7 0 38.2zm-4-47.6c-.6-.5-1.2-1-1.8-1.4-.1-.1-.3-.2-.4-.3-1.2-.9-2.5-1.7-3.9-2.5-.2-.1-.3-.2-.5-.3-.7-.4-1.3-.7-2-1-.1 0-.1-.1-.2-.1-.6-.3-1.3-.6-2-.8-.2-.1-.3-.1-.5-.2-.7-.3-1.4-.5-2.2-.7-.1 0-.2-.1-.3-.1-.7-.2-1.3-.4-2-.5-.2 0-.3-.1-.5-.1-.7-.2-1.5-.3-2.3-.4h-.1v-.1c-.1-.8-.3-1.6-.4-2.3 0-.1-.1-.2-.1-.3l-.6-2.3v-.1c-.2-.8-.5-1.6-.8-2.3 0-.1-.1-.2-.1-.3-.6-1.5-1.2-3-2-4.5 0-.1-.1-.1-.1-.2-.8-1.5-1.7-2.9-2.7-4.3v-.1c-.5-.7-1-1.4-1.6-2 13.8 2.7 24.5 13.4 27.1 27.2zm-36.6-31l-2.5.3h-.1c-1.6.3-3.3.6-4.8 1.1-.1 0-.2 0-.2.1-1.5.5-3.1 1-4.5 1.7-.1.1-.2.1-.3.2-.7.3-1.4.7-2.1 1.1-.1 0-.1.1-.2.1-.6.3-1.3.7-1.9 1.1-.1.1-.3.2-.4.3-.6.4-1.3.8-1.9 1.3l-.1.1-.1-.1c-.6-.4-1.2-.9-1.8-1.3-.2-.1-.3-.2-.5-.3-.6-.4-1.2-.7-1.8-1-.1 0-.2-.1-.3-.2-.7-.4-1.4-.7-2.1-1-.1-.1-.3-.1-.4-.2-1.4-.7-2.9-1.2-4.5-1.7-.1 0-.2-.1-.3-.1-1.6-.5-3.1-.8-4.8-1.1h-.3l-2.5-.3c11.7-8.1 26.9-8.1 38.4-.1zm-47.9 4c-.5.6-1 1.2-1.4 1.8-.1.2-.3.4-.4.5l-1.2 1.8c0 .1-.1.1-.1.2-.4.6-.7 1.2-1.1 1.8-.1.2-.2.4-.3.5-.3.7-.7 1.3-1 2 0 .1-.1.2-.1.3-.3.6-.5 1.2-.8 1.9-.1.2-.1.4-.2.5-.3.7-.5 1.4-.7 2.1 0 .1-.1.2-.1.4-.2.6-.3 1.3-.5 1.9 0 .2-.1.4-.1.5-.2.7-.3 1.5-.4 2.2v.1h-.2c-.7.1-1.4.2-2.1.4-.3.1-.5.1-.8.2-.5.1-1 .2-1.5.4-.2.1-.5.1-.7.2l-1.8.6c-.3.1-.6.2-.9.4-.4.1-.8.3-1.1.5-.5.2-1 .4-1.5.7-.3.2-.7.3-1 .5-.4.2-.7.4-1.1.6-.2.1-.5.3-.7.4-.6.4-1.3.8-1.9 1.2-.2.1-.4.2-.5.4-.4.3-.8.6-1.2.8l-.3.3-1.2.9c2.6-13.8 13.3-24.4 26.9-27zM29.9 69.8c0 .2.1.5.1.7 0 .5.1.9.2 1.4 0 .4.1.7.2 1 .1.4.2.9.2 1.3.1.4.2.9.3 1.3.1.5.2 1 .4 1.4l.3.9c.2.5.3 1.1.5 1.6l.3.9.6 1.5c.1.3.2.5.4.8l.9 1.8.3.6.9 1.5c.1.2.3.4.4.6l1.2 1.8s.1.1.1.2c0 0 0 .1-.1.1-.4.6-.9 1.2-1.3 1.9-.1.2-.2.3-.3.5-.3.5-.7 1.1-1 1.7-.1.1-.1.2-.2.4-.4.6-.7 1.3-1 2l-.3.6c-.3.6-.5 1.2-.8 1.8 0 .1-.1.2-.1.3-.3.7-.5 1.4-.7 2.1-.1.2-.1.4-.2.7-.2.7-.4 1.3-.5 2 0 .1-.1.3-.1.4-.1.6-.3 1.3-.4 1.9 0 .2-.1.5-.1.7l-.3 2.1v.1c-7.9-11.8-7.9-27 .1-38.6zm4 47.9c0 .1 0 .1 0 0 .6.5 1.2 1 1.8 1.4.2.1.4.3.5.4.6.4 1.1.8 1.7 1.2.1.1.2.1.2.2.6.4 1.2.7 1.8 1.1l.6.3c.7.3 1.3.7 2 1 .1 0 .2.1.2.1.6.3 1.2.5 1.9.8.2.1.4.1.5.2.7.3 1.4.5 2.1.7.1 0 .2.1.3.1.6.2 1.3.3 2 .5.2 0 .3.1.5.1.7.2 1.5.3 2.2.4h.1v.1c.1.7.2 1.5.4 2.2 0 .2.1.4.1.6.1.6.3 1.3.5 1.9 0 .1.1.2.1.4.2.7.5 1.4.7 2.1.1.2.1.4.2.6.2.6.5 1.3.8 1.9 0 .1.1.2.1.2.3.7.6 1.4 1 2 .1.2.2.3.3.5.4.7.7 1.3 1.1 2v.1l1.3 1.9c.1.2.2.3.3.5.5.6.9 1.2 1.4 1.8-13.4-2.8-24.2-13.5-26.7-27.3zm36.6 31h.1l2.2-.3c.2 0 .3 0 .5-.1.7-.1 1.4-.3 2.2-.4.2 0 .3-.1.5-.1.7-.2 1.3-.3 2-.5.1 0 .2 0 .2-.1.7-.2 1.4-.5 2.1-.7.2-.1.4-.1.5-.2.7-.3 1.3-.5 2-.8.2-.1.3-.1.4-.2.6-.3 1.2-.6 1.7-.9.1-.1.3-.1.4-.2.6-.3 1.3-.7 1.9-1.1.2-.1.3-.2.5-.3l1.8-1.2s.1 0 .1-.1c.7.5 1.3 1 2 1.4.1 0 .1.1.2.1.7.4 1.4.9 2.1 1.2.7.4 1.4.7 2.1 1.1.1 0 .1.1.2.1l2.1.9c.1 0 .2.1.4.1.7.3 1.5.5 2.2.8l2.2.6c.2 0 .3.1.5.1.7.2 1.4.3 2.2.4a.9.9 0 0 1 .5.1c.7.1 1.3.2 2 .2h.2c-11.4 8-26.5 8-38 .1zm47.7-3.9l.2-.2 1.2-1.5a3.04 3.04 0 0 0 .5-.7c.3-.4.6-.9.9-1.3l.6-.9c.3-.4.5-.9.8-1.4.2-.3.3-.6.5-.8.2-.5.5-.9.7-1.4.2-.4.3-.7.5-1.1s.4-.8.5-1.3c.1-.3.2-.6.4-1 .2-.5.4-1 .5-1.6l.3-1.2.3-1.2c.1-.3.2-.7.2-1l.3-1.8c0-.1 0-.2.1-.3h.2c.7-.1 1.3-.2 2-.4.3-.1.6-.1.9-.2l1.4-.3c.3-.1.7-.2 1-.3.6-.2 1.1-.4 1.7-.6.3-.1.6-.2 1-.4s.8-.3 1.2-.5.9-.4 1.3-.6l1.2-.6c.3-.2.6-.3 1-.5s.7-.4 1.1-.6c.5-.3.9-.6 1.4-.9l.9-.6c.3-.2.6-.5.9-.7s.6-.5.9-.7c.2-.2.5-.4.7-.6-2.6 13.9-13.4 24.7-27.3 27.2zM103 100.3a1.85 1.85 0 0 0-2.5-.1c-3 2.8-6.9 4.3-11 4.1-4.1-.1-7.9-1.9-10.7-4.9s-4.3-6.9-4.1-11c.1-4.1 1.9-7.9 4.9-10.7s6.9-4.3 11-4.1c4.1.1 7.9 1.9 10.7 4.9 2.6 2.8 4.1 6.4 4.1 10.2l-2.8-2.9a1.768 1.768 0 1 0-2.5 2.5l5.7 5.9c.3.3.8.5 1.3.5s.9-.2 1.3-.5l5.6-5.7a1.768 1.768 0 1 0-2.5-2.5l-2.5 2.5c-.1-4.6-1.9-9-5.1-12.3-3.4-3.7-8.1-5.8-13.2-6-5-.2-9.8 1.6-13.5 5.1-3.7 3.4-5.8 8.1-6 13.2s1.6 9.8 5.1 13.5c3.4 3.7 8.1 5.8 13.2 6h.6c4.8 0 9.4-1.8 12.9-5.1.6-.8.6-1.9 0-2.6z"/></svg>